<svg xmlns="http://www.w3.org/2000/svg" width="1024" height="1024" viewBox="0 0 1024 1024"><g transform="translate(512 512) scale(1.15) translate(-512 -512)"><path d="M326.3 696L321.18 691.01L316.19 685.9L311.33 680.65L306.62 675.27L302.05 669.77L297.63 664.15L293.36 658.42L289.24 652.57L285.28 646.62L281.48 640.57L277.84 634.42L274.36 628.17L271.05 621.83L267.91 615.41L264.94 608.91L262.14 602.33L259.52 595.68L257.08 588.96L254.81 582.18L252.72 575.34L250.82 568.45L249.1 561.51L247.56 554.53L246.21 547.51L245.05 540.45L244.07 533.37L243.28 526.26L242.68 519.14L242.27 512L242.04 504.86L242.01 497.71L242.17 490.56L242.51 483.42L243.04 476.29L243.77 469.18L244.68 462.09L245.77 455.02L247.06 447.99L248.53 440.99L250.18 434.04L252.02 427.13L254.04 420.27L256.24 413.47L258.62 406.73L261.18 400.05L263.92 393.44L266.82 386.91L269.9 380.46L273.15 374.09L276.57 367.81L280.15 361.63L283.9 355.54L287.8 349.55L291.87 343.66L296.08 337.89L300.45 332.23L304.97 326.69L309.63 321.27L314.43 315.97L319.37 310.81L324.45 305.77L329.66 300.87L334.99 296.12L340.45 291.5L346.03 287.03L351.73 282.71L357.54 278.55L363.46 274.53L369.48 270.68L375.6 266.99L381.82 263.46L388.13 260.09L394.52 256.9L401 253.87L407.55 251.02L414.18 248.34L420.88 245.84L427.64 243.52L434.46 241.37L441.34 239.41L448.26 237.63L455.23 236.04L462.24 234.63L469.28 233.4L476.36 232.36L483.46 231.51L490.57 230.85L497.71 230.38L504.85 230.09L512 230L519.15 230.09L526.29 230.38L533.43 230.85L540.54 231.51L547.64 232.36L554.72 233.4L561.76 234.63L568.77 236.04L575.74 237.63L582.66 239.41L589.54 241.37L596.36 243.52L603.12 245.84L609.82 248.34L616.45 251.02L623 253.87L629.48 256.9L635.87 260.09L642.18 263.46L648.4 266.99L654.52 270.68L660.54 274.53L666.46 278.55L672.27 282.71L677.97 287.03L683.55 291.5L689.01 296.12L694.34 300.87L699.55 305.77L704.63 310.81L709.57 315.97L714.37 321.27L719.03 326.69L723.55 332.23L727.92 337.89L732.13 343.66L736.2 349.55L740.1 355.54L743.85 361.63L747.43 367.81L750.85 374.09L754.1 380.46L757.18 386.91L760.08 393.44L762.82 400.05L765.38 406.73L767.76 413.47L769.96 420.27L771.98 427.13L773.82 434.04L775.47 440.99L776.94 447.99L778.23 455.02L779.32 462.09L780.23 469.18L780.96 476.29L781.49 483.42L781.83 490.56L781.99 497.71L781.96 504.86L781.73 512L781.32 519.14L780.72 526.26L779.93 533.37L778.95 540.45L777.79 547.51L776.44 554.53L774.9 561.51L773.18 568.45L771.28 575.34L769.19 582.18L766.92 588.96L764.48 595.68L761.86 602.33L759.06 608.91L756.09 615.41L752.95 621.83L749.64 628.17L746.16 634.42L742.52 640.57L738.72 646.62L734.76 652.57L730.64 658.42L726.37 664.15L721.95 669.77L717.38 675.27L712.67 680.65L707.81 685.9L702.82 691.01L697.7 696ZM512 414L593.79 473.42L562.55 569.58L461.45 569.58L430.21 473.42ZM512 316L430.21 256.58L435.22 241.16L441.34 239.41L448.26 237.63L455.23 236.04L462.24 234.63L469.28 233.4L476.36 232.36L483.46 231.51L490.57 230.85L497.71 230.38L504.85 230.09L512 230L519.15 230.09L526.29 230.38L533.43 230.85L540.54 231.51L547.64 232.36L554.72 233.4L561.76 234.63L568.77 236.04L575.74 237.63L582.66 239.41L588.78 241.16L593.79 256.58ZM736.2 349.55L740.1 355.54L743.85 361.63L747.43 367.81L750.85 374.09L754.1 380.46L757.18 386.91L760.08 393.44L762.82 400.05L765.38 406.73L767.76 413.47L769.96 420.27L771.98 427.13L773.82 434.04L775.47 440.99L776.94 447.99L778.23 455.02L779.32 462.09L780.23 469.18L780.96 476.29L781.49 483.42L781.83 490.56L781.89 493.05L768.79 502.57L686.99 443.14L718.24 346.99L734.43 346.99ZM604.84 696L620.15 648.86L721.25 648.86L726.26 664.29L721.95 669.77L717.38 675.27L712.67 680.65L707.81 685.9L702.82 691.01L697.7 696ZM419.16 696L326.3 696L321.18 691.01L316.19 685.9L311.33 680.65L306.62 675.27L302.05 669.77L297.74 664.29L302.75 648.86L403.85 648.86ZM263.92 393.44L266.82 386.91L269.9 380.46L273.15 374.09L276.57 367.81L280.15 361.63L283.9 355.54L287.8 349.55L289.57 346.99L305.76 346.99L337.01 443.14L255.21 502.57L242.11 493.05L242.17 490.56L242.51 483.42L243.04 476.29L243.77 469.18L244.68 462.09L245.77 455.02L247.06 447.99L248.53 440.99L250.18 434.04L252.02 427.13L254.04 420.27L256.24 413.47L258.62 406.73L261.18 400.05Z" fill="#fff" fill-rule="evenodd"/><rect x="222" y="714" width="580" height="48" rx="24" fill="#fff"/></g></svg>
